<svg xmlns="http://www.w3.org/2000/svg" viewBox="0 0 472.6 101.7"><defs><style>.cls-1{fill:#26cad3;}.cls-2{fill:#fff;}.cls-3{fill:#3e4543;}</style></defs><title>Logo</title><g id="Layer_2" data-name="Layer 2"><g id="Layer_1-2" data-name="Layer 1"><circle class="cls-1" cx="50.85" cy="50.85" r="50.85"/><path class="cls-2" d="M39.63,72c3.91-.1,4.87-.86,4.87-3.53V43.26c0-5.73-2.1-9.07-6.87-9.07-3.44,0-5.54,2.48-8,6.3v28c0,2.67.76,3.44,4.58,3.53v1.15h-24V72c5.54-.1,6.68-.86,6.68-3.53V35.62c0-2.86-1.15-4.68-6.68-4.77V29.7l19.19-.86v9.55c4.11-6.11,9.55-9.83,15.85-9.83,6.68,0,10.6,3.44,11.65,9.93,3.91-5.92,10-9.93,15.94-9.93,8,0,12,4.77,12,13.75V68.46c0,2.67,1.05,3.44,6.59,3.53v1.15h-24V72c3.82-.1,4.68-.86,4.68-3.53V43.26c0-5.73-1.81-9.07-6.59-9.07-2.48,0-5.73,2.2-8.5,6.3A9.89,9.89,0,0,1,57.2,42V68.46c0,2.67,1.05,3.44,5.06,3.53v1.15H39.63Z"/><path class="cls-3" d="M104.94,62A11.3,11.3,0,0,1,111,52c6.87-3.72,17.76-3.44,20.91-4.58V39.72c0-6.78-2-9.83-7.06-9.83a11.21,11.21,0,0,0-7,2.1,7.74,7.74,0,0,1,2.58,5.54c0,3.91-2.29,6.49-6.59,6.49a6.36,6.36,0,0,1-6.49-6.4c0-5.73,6.4-9.55,19.48-9.55,11.65,0,17.76,4.39,17.76,14.89V64.26c0,4.68,1.81,6.11,7,3.91l.57,1.05c-3.53,2.29-6.4,3.82-10.22,3.82-6,0-8.5-2.39-9.26-7.26h-.38c-3.53,3.91-7.92,7.35-14.13,7.35C109,73.14,104.94,67.41,104.94,62Zm26.92,1.72V49.37C121,51.09,118.4,53.57,118.4,60.44c0,4.49,2.29,7.45,6.59,7.45A8.8,8.8,0,0,0,131.86,63.69Z"/><path class="cls-3" d="M155.54,36c-2.1-4.58-3.53-5.63-8.21-6.3V28.55h26.25V29.7c-5.44.48-6.4,1.81-5,5.16l11,25.59,8.31-21c2.58-6.49,1.05-8.78-5.92-9.74V28.55h18.43V29.7c-3.82.38-7,2.48-8.88,7.26l-16.71,40.1c-4.68,11.36-9.74,14.7-15.18,14.7s-8.78-2.86-8.78-7.35a6.25,6.25,0,0,1,6.3-6.4,6,6,0,0,1,6,6.21,7.52,7.52,0,0,1-2.39,5.54c4.49-.48,8.31-3.63,12.32-13.94l.57-1.34Z"/><path class="cls-3" d="M203.56,65.41V11c0-3.06-.86-4.58-7.16-4.68V5.16l19.86-1v29.5a19.86,19.86,0,0,1,14.32-5.92c11.46,0,17.47,9.55,17.47,21.39,0,13.84-8.12,24.25-21.1,24.25-5.06,0-11-1.15-15.66-4.2l-6.21,5.25h-1.72ZM234.5,49.65c0-10.31-3.72-17.85-10.31-17.85-3.05,0-5.16,1.24-7.92,3.53v29.6c2,4.39,5.16,6.68,8.69,6.68C231.63,71.61,234.5,62.54,234.5,49.65Z"/><path class="cls-3" d="M253.78,51.18c0-14.42,10.22-23.39,22.53-23.39,13.37,0,20.34,8.88,19.67,21.19H267.24v1.91c0,11.65,5,18.52,14.42,18.52,5.82,0,9.55-2.86,13.18-7.83l1.05.67c-4.2,6.68-10,11.17-19.48,11.17C262.95,73.43,253.78,65.12,253.78,51.18Zm13.56-3.91H283c1.15-10.88-1.24-17.66-7.26-17.66C270.39,29.6,267.72,36.1,267.34,47.27Z"/><path class="cls-3" d="M300.47,71.52c5.54-.1,6.68-.86,6.68-3.53V35.14c0-2.86-1.15-4.68-6.68-4.77V29.22l19.19-.86v9.16c3.15-6,8-9.55,13.18-9.55,5.54,0,8.5,3.44,8.5,7.92s-2.86,7.35-6.78,7.35c-4.49,0-7.26-3.05-7.26-6.68a12.83,12.83,0,0,1,.67-3.82c-2.86.38-5.82,3-8.12,6.78V68c0,2.67,1.53,3.34,8.5,3.53v1.15H300.47Z"/><path class="cls-3" d="M343.43,71.52c5.54-.1,6.68-.86,6.68-3.53V35.14c0-2.86-1.15-4.68-6.68-4.77V29.22l19.19-.86v9.16c3.15-6,8-9.55,13.18-9.55,5.54,0,8.5,3.44,8.5,7.92s-2.86,7.35-6.78,7.35c-4.49,0-7.26-3.05-7.26-6.68a12.83,12.83,0,0,1,.67-3.82c-2.86.38-5.82,3-8.12,6.78V68c0,2.67,1.53,3.34,8.5,3.53v1.15H343.43Z"/><path class="cls-3" d="M392.22,36c-2.1-4.58-3.53-5.63-8.21-6.3V28.55h26.25V29.7c-5.44.48-6.4,1.81-5,5.16l11,25.59,8.31-21c2.58-6.49,1.05-8.78-5.92-9.74V28.55h18.43V29.7c-3.82.38-7,2.48-8.88,7.26L411.5,77.05c-4.68,11.36-9.74,14.7-15.18,14.7s-8.78-2.86-8.78-7.35a6.25,6.25,0,0,1,6.3-6.4,6,6,0,0,1,6,6.21,7.52,7.52,0,0,1-2.39,5.54c4.49-.48,8.31-3.63,12.32-13.94l.57-1.34Z"/><path class="cls-3" d="M436.8,57h1.34C444.34,67.12,449,71.61,455.8,71.61c5,0,7.64-3,7.64-6.87,0-4.39-2.58-6.4-12.41-9.26-10-2.86-14.23-5.92-14.23-13.08,0-8.78,6.78-14.61,17.38-14.61A21.81,21.81,0,0,1,466.11,31l2.67-3.25h1.15v14.7h-1.34c-5.54-8.78-9-12.89-15-12.89-4.3,0-7.16,2.77-7.16,7.16,0,3.91,4.11,5.82,10.6,7.54,10.22,2.48,15.56,6,15.56,13.94,0,8.59-6.87,15.18-17.76,15.18-3.53,0-11.27-1.91-13.94-3.53l-3,3.53H436.8Z"/><path class="cls-1" d="M211.87,78.74V80h-7.29v4.3h6.52v1.24h-6.52v5.24h-1.36v-12Z"/><path class="cls-1" d="M234.15,78.65l5.48,12.12h-1.46l-1.41-3.18h-6.55l-1.43,3.18h-1.39l5.48-12.12Zm2.08,7.72-2.73-6.14-2.75,6.14Z"/><path class="cls-1" d="M258,81.75a1.69,1.69,0,0,0,.68,1.43,7.15,7.15,0,0,0,2.59.93,6.91,6.91,0,0,1,3,1.25,2.71,2.71,0,0,1,.94,2.18A3,3,0,0,1,264,90a4.53,4.53,0,0,1-3,.94A7.16,7.16,0,0,1,256.17,89l.84-1A7,7,0,0,0,259,89.31a5.57,5.57,0,0,0,2.19.41,3.08,3.08,0,0,0,1.94-.58,1.8,1.8,0,0,0,.74-1.49,1.7,1.7,0,0,0-.65-1.41,6.4,6.4,0,0,0-2.48-.89,7.46,7.46,0,0,1-3.09-1.25,2.74,2.74,0,0,1-1-2.24,3,3,0,0,1,1.12-2.37,4.29,4.29,0,0,1,2.84-.93A6.56,6.56,0,0,1,264.84,80l-.79,1a5.37,5.37,0,0,0-3.47-1.31,2.9,2.9,0,0,0-1.86.56A1.72,1.72,0,0,0,258,81.75Z"/><path class="cls-1" d="M291.4,85.36h-6.95v5.42H283.1v-12h1.36v5.35h6.95V78.74h1.36v12H291.4Z"/><path class="cls-1" d="M311.41,78.74h1.36v12h-1.36Z"/><path class="cls-1" d="M341.45,80.35a6.45,6.45,0,0,1,0,8.79,6.23,6.23,0,0,1-8.82,0,6.45,6.45,0,0,1,0-8.79,6.23,6.23,0,0,1,8.82,0Zm-1,7.93a5.3,5.3,0,0,0,0-7,4.69,4.69,0,0,0-6.77,0,5.3,5.3,0,0,0,0,7,4.69,4.69,0,0,0,6.77,0Z"/><path class="cls-1" d="M370,88.38V78.74h1.32v12h-1.08l-7.77-9.87v9.87h-1.32v-12h1.27Z"/></g></g></svg>